<svg xmlns:rdf="http://www.w3.org/1999/02/22-rdf-syntax-ns#" xmlns="http://www.w3.org/2000/svg" version="1.1" xmlns:cc="http://creativecommons.org/ns#" xmlns:dc="http://purl.org/dc/elements/1.1/" width="128" height="128" viewBox="0 0 128 128">
	<metadata>
		<rdf:RDF>
			<cc:Work rdf:about="">
				<dc:format>image/svg+xml</dc:format>
				<dc:type rdf:resource="http://purl.org/dc/dcmitype/StillImage"/>
				<dc:title/>
			</cc:Work>
		</rdf:RDF>
	</metadata>
	<path d="m107.52 3.5156l-9.29 9.2854c-2.67-5.1843-8.083-8.801-14.23-8.801h-64c-8.726 0-16 7.274-16 16v88c0 8.73 7.274 16 16 16h64c8.726 0 16-7.27 16-16v-63.031l24.48-24.485-16.96-16.968zm-87.52 16.484h64v7.031l-36.484 36.485 16.968 16.968 19.516-19.515v47.031h-64v-88zm23.029 48.029l-8.484 8.487v16.968h16.971l8.484-8.484-16.971-16.971z" fill="ButtonShadow"/>
</svg>
