<svg xmlns="http://www.w3.org/2000/svg"
     xmlns:cc="http://creativecommons.org/ns#"
     xmlns:dc="http://purl.org/dc/elements/1.1/"
     xmlns:rdf="http://www.w3.org/1999/02/22-rdf-syntax-ns#"
     height="128" width="128" viewBox="0 0 128 128">
  <metadata>
    <rdf:RDF>
      <cc:Work rdf:about="">
        <dc:format>image/svg+xml</dc:format>
        <dc:type rdf:resource="http://purl.org/dc/dcmitype/StillImage"/>
        <dc:title>withExEditor Icon</dc:title>
      </cc:Work>
    </rdf:RDF>
  </metadata>
  <g id="color">
    <g id="background" fill="#FFF">
      <path d="M 20,20 H 84 V 108 H 20 Z"/>
    </g>
    <g id="frame" fill="#002147">
      <path d="m20 4c-8.726 0-16 7.274-16 16v88c0 8.7256 7.2744 16 16
               16h64c8.7256 0 16-7.2744 16-16v-88c0-8.726-7.274-16-16-16h-64zm0
               16h64v88h-64v-88z"/>
    </g>
    <g id="pen" fill="#E66000">
      <path d="m107.52 3.5156-60 60 16.969 16.969 60-60-16.969-16.969z"/>
      <path d="m0 0v24h12l12-12-12-12z"
            transform="translate(60,85) rotate(135)"/>
    </g>
  </g>
</svg>
