<svg xmlns="http://www.w3.org/2000/svg"
     xmlns:cc="http://creativecommons.org/ns#"
     xmlns:dc="http://purl.org/dc/elements/1.1/"
     xmlns:rdf="http://www.w3.org/1999/02/22-rdf-syntax-ns#"
     height="128" width="128" viewBox="0 0 128 128">
  <metadata>
    <rdf:RDF>
      <cc:Work rdf:about="">
        <dc:format>image/svg+xml</dc:format>
        <dc:type rdf:resource="http://purl.org/dc/dcmitype/StillImage"/>
        <dc:title>withExEditor Icon</dc:title>
      </cc:Work>
    </rdf:RDF>
  </metadata>
  <style>
    g:not(#color):not(:target),
    g:target ~ #color {
      display: none;
    }
  </style>
  <symbol id="outline">
    <path d="m107.52 3.5156-9.2871 9.2871c-2.6702-5.1853-8.0845-8.8027-14.232-8.8027h-64c-8.726 0-16 7.274-16 16v88c0 8.7256 7.2744 16 16 16h64c8.7256 0 16-7.2744 16-16v-63.027l24.488-24.488-16.969-16.969zm-88.719 10.484h66.398l4.8008 4.8008v2.2344l-42.48 42.48 16.969 16.969 25.512-25.512v54.227l-4.8008 4.8008h-66.398l-4.8008-4.8008v-90.398l4.8008-4.8008zm24.229 54.029-8.4844 8.4863v16.969h16.971l8.4844-8.4844-16.971-16.971z"/>
  </symbol>
  <symbol id="background">
    <path d="m19 19h66v90h-66z"/>
  </symbol>
  <symbol id="frame">
    <path d="m20 4c-8.726 0-16 7.274-16 16v88c0 8.7256 7.2744 16 16 16h64c8.7256 0 16-7.2744 16-16v-88c0-8.726-7.274-16-16-16h-64zm0 16h64v88h-64v-88z"/>
  </symbol>
  <symbol id="pen">
    <path d="m107.52 3.5156-60 60 16.969 16.969 60-60-16.969-16.969z"/>
    <path d="m0 0v24h12l12-12-12-12z" transform="translate(60,85) rotate(135)"/>
  </symbol>
  <g id="context" fill="context-fill rgb(91,91,102)"
     fill-opacity="context-fill-opacity 1.0">
    <use href="#outline"/>
  </g>
  <g id="current" fill="context-fill currentColor">
    <use href="#outline"/>
  </g>
  <g id="black" fill="#000">
    <use href="#outline"/>
  </g>
  <g id="white" fill="#fff">
    <use href="#outline"/>
  </g>
  <g id="dark" fill="rgb(91,91,102)">
    <use href="#outline"/>
  </g>
  <g id="light" fill="rgb(251,251,254)">
    <use href="#outline"/>
  </g>
  <g id="off" fill="ButtonShadow">
    <use href="#outline"/>
  </g>
  <g id="color">
    <use href="#background" fill="#fff"/>
    <use href="#frame" fill="#002147"/>
    <use href="#pen" fill="#e66000"/>
  </g>
</svg>
